# xmcd CD database file
#
# Track frame offsets:
#	150
#	9800
#	22205
#	35635
#	48032
#	57122
#	70447
#	83920
#	92722
#	108447
#	122260
#	130465
#
# Disc length: 1897 seconds
#
# Revision: 0
# Processed by: cddbd v1.5.1PL2 Copyright (c) Steve Scherf et al.
# Submitted via: CDex 1.50
#
DISCID=9707670c
DTITLE=Jack Kelly - The Most Beautiful Girl in the World
DYEAR=1900
DGENRE=Jazz
TTITLE0=Three Little Words
TTITLE1=Montuna
TTITLE2=September Song
TTITLE3=The Rose Room
TTITLE4=The Most Beautiful Girl in the World
TTITLE5=Let's Fall in Love
TTITLE6=Sweet Georgia Brown
TTITLE7=Lady be Good
TTITLE8=April in Paris
TTITLE9=Sweet Lorraine
TTITLE10=Jusy You Just Me
TTITLE11=How High the Moon
EXTD=
EXTT0=
EXTT1=
EXTT2=
EXTT3=
EXTT4=
EXTT5=
EXTT6=
EXTT7=
EXTT8=
EXTT9=
EXTT10=
EXTT11=
PLAYORDER=
